<svg preserveAspectRatio="none" overflow="visible" style="display: block;" width="180" height="125" viewBox="0 0 180 125" fill="none" xmlns="http://www.w3.org/2000/svg">
<g id="Balium polished 3D vector">
<path id="Vector" d="M91 121C127.451 121 157 112.941 157 103C157 93.0589 127.451 85 91 85C54.5492 85 25 93.0589 25 103C25 112.941 54.5492 121 91 121Z" fill="url(#paint0_radial_0_82)"/>
<g id="Vector_2" opacity="0.12" filter="url(#filter0_f_0_82)">
<path d="M91 117C116.957 117 138 114.314 138 111C138 107.686 116.957 105 91 105C65.0426 105 44 107.686 44 111C44 114.314 65.0426 117 91 117Z" fill="#789779"/>
</g>
<path id="Vector_3" d="M91 116C117.51 116 139 112.866 139 109C139 105.134 117.51 102 91 102C64.4903 102 43 105.134 43 109C43 112.866 64.4903 116 91 116Z" stroke="#7E9E7E" stroke-opacity="0.19"/>
<path id="Vector_4" d="M91 114C110.882 114 127 111.761 127 109C127 106.239 110.882 104 91 104C71.1177 104 55 106.239 55 109C55 111.761 71.1177 114 91 114Z" stroke="#7E9E7E" stroke-opacity="0.14"/>
<path id="Vector_5" d="M91 112.5C104.807 112.5 116 110.933 116 109C116 107.067 104.807 105.5 91 105.5C77.1929 105.5 66 107.067 66 109C66 110.933 77.1929 112.5 91 112.5Z" stroke="#7E9E7E" stroke-opacity="0.1"/>
<path id="Vector_6" d="M55 69L105 61L137 72L85 82L55 69Z" fill="#DCE9D8" stroke="#557D58" stroke-width="1.2"/>
<path id="Vector_7" d="M55 69L85 82V108L55 96V69Z" fill="url(#paint1_linear_0_82)" stroke="#557D58" stroke-width="1.2"/>
<path id="Vector_8" d="M85 82L137 72V99L85 108V82Z" fill="url(#paint2_linear_0_82)" stroke="#557D58" stroke-width="1.2"/>
<g id="Group" opacity="0.72">
<path id="Vector_9" d="M98 79V106" stroke="#638965" stroke-width="0.75"/>
<path id="Vector_10" d="M111 77V103.5" stroke="#638965" stroke-width="0.75"/>
<path id="Vector_11" d="M124 74.5V101.2" stroke="#638965" stroke-width="0.75"/>
<path id="Vector_12" d="M66 74V100" stroke="#638965" stroke-width="0.75"/>
<path id="Vector_13" d="M75 78V104" stroke="#638965" stroke-width="0.75"/>
</g>
<g id="Vector_14" opacity="0.75">
<path d="M88 84L134 75Z" fill="black"/>
<path d="M88 84L134 75" stroke="#F4F8F1"/>
</g>
<g id="Vector_15" opacity="0.65">
<path d="M58 71L82 81Z" fill="black"/>
<path d="M58 71L82 81" stroke="#ECF3E8"/>
</g>
<path id="Vector_16" d="M54 59L106 50L138 61L84 72L54 59Z" fill="#C9DBC5" fill-opacity="0.55" stroke="#4F7C52" stroke-width="1.4"/>
<g id="Group_2">
<path id="Vector_17" d="M57 58L64 56.8L91 68L84 69.3L57 58Z" fill="url(#paint3_linear_0_82)" stroke="#517B54" stroke-width="0.95"/>
<path id="Vector_18" d="M67 56.3L74 55.1L101 66L94 67.4L67 56.3Z" fill="url(#paint4_linear_0_82)" stroke="#517B54" stroke-width="0.95"/>
<path id="Vector_19" d="M77 54.6L84 53.4L111 64.2L104 65.6L77 54.6Z" fill="url(#paint5_linear_0_82)" stroke="#517B54" stroke-width="0.95"/>
<path id="Vector_20" d="M87 52.9L94 51.7L121 62.5L114 63.9L87 52.9Z" fill="url(#paint6_linear_0_82)" stroke="#517B54" stroke-width="0.95"/>
<path id="Vector_21" d="M97 51.2L104 50L132 60.4L124 61.9L97 51.2Z" fill="url(#paint7_linear_0_82)" stroke="#517B54" stroke-width="0.95"/>
</g>
<path id="Vector_22" d="M54 59L84 72V78L54 65V59Z" fill="#AECAAB" fill-opacity="0.55" stroke="#4F7C52"/>
<path id="Vector_23" d="M84 72L138 61V67L84 78V72Z" fill="#B8D1B5" fill-opacity="0.65" stroke="#4F7C52"/>
<path id="Vector_24" d="M57 59V27C57 21 59.3333 16.3333 64 13" stroke="#4C7950" stroke-width="2.1" stroke-linecap="round"/>
<path id="Vector_25" d="M107 50V30C107 23.3333 104.333 18.3333 99 15" stroke="#4C7950" stroke-width="2.1" stroke-linecap="round"/>
<path id="Vector_26" d="M64 13C76 14.3333 87.6667 15 99 15" stroke="#4C7950" stroke-width="1.8"/>
<g id="Group_3">
<path id="Vector_27" d="M65 13.8V56" stroke="#527D55" stroke-width="1.15"/>
<path id="Vector_28" d="M75 14.6V54.5" stroke="#527D55" stroke-width="1.15"/>
<path id="Vector_29" d="M85 15V53" stroke="#527D55" stroke-width="1.15"/>
<path id="Vector_30" d="M95 15V51.5" stroke="#527D55" stroke-width="1.15"/>
<path id="Vector_31" d="M105 20V49.5" stroke="#527D55" stroke-width="1.15"/>
</g>
<g id="Group_4">
<path id="Vector_32" d="M57 31C73.6667 33 90.6667 35.6667 108 39" stroke="#5E875F"/>
<path id="Vector_33" d="M57 40C73.6667 42 90.6667 44.3333 108 47" stroke="#5E875F"/>
<path id="Vector_34" d="M57 49C73.6667 51 90.3333 53.3333 107 56" stroke="#5E875F"/>
</g>
<path id="Vector_35" d="M99 15C111 19 119 25.3333 123 34C125.667 40 127.333 47.6667 128 57" stroke="#4C7950" stroke-width="1.7"/>
<path id="Vector_36" opacity="0.8" d="M92 17C102.667 21.6667 109.667 27.6667 113 35C115 40.3333 116.333 46.3333 117 53" stroke="#688F69"/>
<path id="Vector_37" opacity="0.7" d="M84 18C94 22.6667 100.667 28.6667 104 36C106 40.6667 107.333 45.3333 108 50" stroke="#688F69" stroke-width="0.9"/>
<path id="Vector_38" d="M57 59H54" stroke="#4C7950" stroke-width="1.2"/>
<path id="Vector_39" d="M107 50H106" stroke="#4C7950" stroke-width="1.2"/>
<g id="Group_5" opacity="0.35">
<path id="Vector_40" d="M131 95C136.333 87 139.667 86.3333 141 93C137 93 133.667 93.6667 131 95Z" fill="#729873"/>
<path id="Vector_41" d="M128 100C132.667 94 135.333 93.3333 136 98C133.333 97.3333 130.667 98 128 100Z" fill="#729873"/>
<path id="Vector_42" d="M58 98C53.3333 92.6667 50.6667 92.3333 50 97C52.6667 96.3333 55.3333 96.6667 58 98Z" fill="#729873"/>
</g>
<path id="Vector_43" opacity="0.9" d="M116 28.2C116.663 28.2 117.2 27.6627 117.2 27C117.2 26.3373 116.663 25.8 116 25.8C115.337 25.8 114.8 26.3373 114.8 27C114.8 27.6627 115.337 28.2 116 28.2Z" fill="#EFF7EB"/>
<path id="Vector_44" opacity="0.8" d="M72 21.9C72.4971 21.9 72.9 21.4971 72.9 21C72.9 20.5029 72.4971 20.1 72 20.1C71.5029 20.1 71.1 20.5029 71.1 21C71.1 21.4971 71.5029 21.9 72 21.9Z" fill="#EFF7EB"/>
</g>
<defs>
<filter id="filter0_f_0_82" x="36" y="97" width="110" height="28" filterUnits="userSpaceOnUse" color-interpolation-filters="sRGB">
<feFlood flood-opacity="0" result="BackgroundImageFix"/>
<feBlend mode="normal" in="SourceGraphic" in2="BackgroundImageFix" result="shape"/>
<feGaussianBlur stdDeviation="4" result="effect1_foregroundBlur_0_82"/>
</filter>
<radialGradient id="paint0_radial_0_82" cx="0" cy="0" r="1" gradientUnits="userSpaceOnUse" gradientTransform="translate(91 103) scale(66 18)">
<stop stop-color="#A9CDA6" stop-opacity="0.24"/>
<stop offset="1" stop-color="#A9CDA6" stop-opacity="0"/>
</radialGradient>
<linearGradient id="paint1_linear_0_82" x1="55" y1="69" x2="92.6952" y2="97.9963" gradientUnits="userSpaceOnUse">
<stop stop-color="#BFD5BA"/>
<stop offset="1" stop-color="#86A985"/>
</linearGradient>
<linearGradient id="paint2_linear_0_82" x1="85" y1="72" x2="118.696" y2="120.672" gradientUnits="userSpaceOnUse">
<stop stop-color="#E7F0E3"/>
<stop offset="0.5" stop-color="#C8DCC3"/>
<stop offset="1" stop-color="#9FBD9D"/>
</linearGradient>
<linearGradient id="paint3_linear_0_82" x1="57" y1="56.8" x2="57" y2="69.3" gradientUnits="userSpaceOnUse">
<stop stop-color="#F1F6EE"/>
<stop offset="1" stop-color="#B5CCB1"/>
</linearGradient>
<linearGradient id="paint4_linear_0_82" x1="67" y1="55.1" x2="67" y2="67.4" gradientUnits="userSpaceOnUse">
<stop stop-color="#F1F6EE"/>
<stop offset="1" stop-color="#B5CCB1"/>
</linearGradient>
<linearGradient id="paint5_linear_0_82" x1="77" y1="53.4" x2="77" y2="65.6" gradientUnits="userSpaceOnUse">
<stop stop-color="#F1F6EE"/>
<stop offset="1" stop-color="#B5CCB1"/>
</linearGradient>
<linearGradient id="paint6_linear_0_82" x1="87" y1="51.7" x2="87" y2="63.9" gradientUnits="userSpaceOnUse">
<stop stop-color="#F1F6EE"/>
<stop offset="1" stop-color="#B5CCB1"/>
</linearGradient>
<linearGradient id="paint7_linear_0_82" x1="97" y1="50" x2="97" y2="61.9" gradientUnits="userSpaceOnUse">
<stop stop-color="#F1F6EE"/>
<stop offset="1" stop-color="#B5CCB1"/>
</linearGradient>
</defs>
</svg>
